# xmcd
#
# Track frame offsets:
#	150
#	13785
#	27450
#	41773
#	56864
#	70511
#	85060
#	96604
#	109899
#	124906
#	141644
#	155857
#	170511
#	188357
#
# Disc length: 2648 seconds
#
# Revision: 1
# Processed by: cddbd v1.5.2PL0 Copyright (c) Steve Scherf et al.
# Submitted via: audiograbber 1.83.01
#
DISCID=cd0a560e
DTITLE=аццекопоукос ламыкгс [2001] CD3 - о дийос лас тсиццамос [йасетима 3]
DYEAR=2001
DGENRE=Country
TTITLE0=о пяосжуцас
TTITLE1=пемте еккгмес стом адг
TTITLE2=пгяе жытиа г йакалаяиа
TTITLE3=поиа ха ле йамеи ма невасы
TTITLE4=отам йоилатаи о дустувгс
TTITLE5=отам айоуы тг бяовг
TTITLE6=осо анифеис есу
TTITLE7=паяапомиаяийо
TTITLE8=асг цкуйа евоум та веикг соу
TTITLE9=лоу тгм евеис дысеи
TTITLE10=лоу стеикес писы то давтукиди
TTITLE11=ломо есу л' ацапгсес
TTITLE12=лисиякоу
TTITLE13=о 20ОР аиымас
EXTD=
EXTT0=
EXTT1=
EXTT2=
EXTT3=
EXTT4=
EXTT5=
EXTT6=
EXTT7=
EXTT8=
EXTT9=
EXTT10=
EXTT11=
EXTT12=
EXTT13=
PLAYORDER=
